<svg data-v-423bf9ae="" xmlns="http://www.w3.org/2000/svg" viewBox="0 0 971.5690466519811 163" class="iconAbove"><!----><!----><!----><g data-v-423bf9ae="" id="0f4d7d96-852d-4142-bd26-381d28554c99" fill="#022239" transform="matrix(5.671077728271484,0,0,5.671077728271484,-6.351646423339844,102.26275634765625)"><path d="M6.30 10.50L6.30 10.50L6.30 8.50L3.12 8.50L3.12 6.50L5.75 6.50L5.75 4.49L3.12 4.49L3.12 2.49L6.13 2.49L6.13 0.49L1.12 0.49L1.12 10.50L6.30 10.50ZM10.18 5.05L10.18 5.05L15.25 10.71L15.78 10.71L15.78 0.50L13.76 0.50L13.76 6.16L8.71 0.28L8.18 0.28L8.18 10.50L10.18 10.50L10.18 5.05ZM17.14 10.50L19.40 10.50L19.80 9.42L23.11 9.42L23.52 10.50L25.77 10.50L21.56 0.13L21.35 0.13L17.14 10.50L17.14 10.50ZM20.52 7.55L21.46 4.94L22.37 7.55L20.52 7.55L20.52 7.55ZM30.17 10.50L30.17 2.49L32.66 2.49L32.66 0.50L25.68 0.50L25.68 2.49L28.17 2.49L28.17 10.50L30.17 10.50L30.17 10.50ZM41.17 10.50L41.17 0.49L39.17 0.49L39.17 4.49L36.18 4.49L36.18 0.49L34.17 0.49L34.17 10.50L36.18 10.50L36.18 6.50L39.17 6.50L39.17 10.50L41.17 10.50L41.17 10.50ZM50.68 10.50L50.68 10.50L48.36 6.37C51.30 5.52 50.95 0.49 47.38 0.49L43.43 0.49L43.43 10.50L45.43 10.50L45.43 6.68L46.40 6.68L48.41 10.50ZM45.43 2.49L47.19 2.49C48.55 2.49 48.55 4.73 47.19 4.73L45.43 4.73L45.43 4.73ZM51.11 10.50L53.38 10.50L53.77 9.42L57.09 9.42L57.50 10.50L59.75 10.50L55.54 0.13L55.33 0.13L51.11 10.50L51.11 10.50ZM54.50 7.55L55.44 4.94L56.35 7.55L54.50 7.55L54.50 7.55ZM60.12 10.50L60.12 10.50L62.55 10.50L64.48 7.07L66.40 10.50L68.77 10.50L65.62 5.17L68.35 0.48L65.98 0.48L64.48 3.26L62.97 0.48L60.55 0.48L63.27 5.17L60.12 10.50ZM73.96 0.49L73.96 0.49L73.96 10.50L79.14 10.50L79.14 8.50L75.96 8.50L75.96 0.49L73.96 0.49ZM79.97 10.50L82.24 10.50L82.63 9.42L85.95 9.42L86.35 10.50L88.61 10.50L84.39 0.13L84.18 0.13L79.97 10.50L79.97 10.50ZM83.36 7.55L84.29 4.94L85.20 7.55L83.36 7.55L83.36 7.55ZM92.02 2.48L93.80 2.48C94.37 2.48 94.72 2.93 94.72 3.49C94.72 4.03 94.37 4.49 93.80 4.49L93.23 4.49L92.02 4.49L92.02 2.48L92.02 2.48ZM90.01 10.50L93.97 10.50C95.59 10.50 96.92 9.17 96.92 7.49C96.92 6.71 96.54 5.94 95.89 5.49C96.52 5.05 96.78 4.27 96.81 3.51C96.85 1.75 95.75 0.48 93.97 0.48L90.01 0.48L90.01 10.50L90.01 10.50L90.01 10.50ZM92.02 6.50L93.80 6.50C94.37 6.50 94.81 6.93 94.81 7.49C94.81 8.05 94.37 8.50 93.80 8.50L93.23 8.50L92.02 8.50L92.02 6.50L92.02 6.50ZM103.52 10.64L103.52 10.64C110.40 10.64 110.40 0.32 103.52 0.32C96.63 0.32 96.63 10.64 103.52 10.64ZM103.52 8.57L103.52 8.57C99.51 8.57 99.51 2.38 103.52 2.38C107.52 2.38 107.52 8.57 103.52 8.57ZM117.81 10.50L117.81 10.50L115.49 6.37C118.43 5.52 118.08 0.49 114.51 0.49L110.56 0.49L110.56 10.50L112.56 10.50L112.56 6.68L113.53 6.68L115.54 10.50ZM112.56 2.49L114.32 2.49C115.68 2.49 115.68 4.73 114.32 4.73L112.56 4.73L112.56 4.73ZM118.24 10.50L120.51 10.50L120.90 9.42L124.22 9.42L124.63 10.50L126.88 10.50L122.67 0.13L122.46 0.13L118.24 10.50L118.24 10.50ZM121.63 7.55L122.57 4.94L123.48 7.55L121.63 7.55L121.63 7.55ZM131.28 10.50L131.28 2.49L133.77 2.49L133.77 0.50L126.78 0.50L126.78 2.49L129.28 2.49L129.28 10.50L131.28 10.50L131.28 10.50ZM139.78 10.64L139.78 10.64C146.66 10.64 146.66 0.32 139.78 0.32C132.89 0.32 132.89 10.64 139.78 10.64ZM139.78 8.57L139.78 8.57C135.77 8.57 135.77 2.38 139.78 2.38C143.78 2.38 143.78 8.57 139.78 8.57ZM154.07 10.50L154.07 10.50L151.75 6.37C154.69 5.52 154.34 0.49 150.77 0.49L146.82 0.49L146.82 10.50L148.82 10.50L148.82 6.68L149.79 6.68L151.80 10.50ZM148.82 2.49L150.58 2.49C151.94 2.49 151.94 4.73 150.58 4.73L148.82 4.73L148.82 4.73ZM157.40 10.50L157.40 0.49L155.40 0.49L155.40 10.50L157.40 10.50L157.40 10.50ZM164.84 10.50L164.84 10.50L164.84 8.50L161.66 8.50L161.66 6.50L164.29 6.50L164.29 4.49L161.66 4.49L161.66 2.49L164.67 2.49L164.67 0.49L159.66 0.49L159.66 10.50L164.84 10.50ZM166.25 9.86C167.61 10.56 168.85 10.63 169.41 10.58C171.29 10.49 172.44 9.21 172.44 7.55C172.44 5.95 171.09 5.05 169.54 4.48C168.97 4.28 168.48 4.03 168.42 3.47C168.38 2.91 168.70 2.39 169.41 2.35C169.72 2.34 170.35 2.32 171.46 2.77L171.71 0.84C170.42 0.39 169.74 0.39 169.22 0.42C167.55 0.50 166.39 1.79 166.39 3.47C166.39 5.15 167.79 5.95 169.36 6.52C169.92 6.72 170.35 6.97 170.39 7.55C170.45 8.09 169.95 8.51 169.36 8.55C168.90 8.60 167.65 8.57 166.50 7.76L166.25 9.86L166.25 9.86Z"></path></g><defs data-v-423bf9ae=""><linearGradient data-v-423bf9ae="" gradientTransform="rotate(25)" id="0dd90c0b-fece-41e4-adf4-fdc13c4fcf43" x1="0%" y1="0%" x2="100%" y2="0%"><stop data-v-423bf9ae="" offset="0%" style="stop-color: rgb(0, 10, 104); stop-opacity: 1;"></stop><stop data-v-423bf9ae="" offset="100%" style="stop-color: rgb(0, 196, 238); stop-opacity: 1;"></stop></linearGradient></defs><g data-v-423bf9ae="" id="a0768f56-9d81-4a18-9b56-6c6a8db6d058" transform="matrix(1.0688835382461548,0,0,1.0688835382461548,438.62451171875,-2.1790964603424072)" stroke="none" fill="url(#0dd90c0b-fece-41e4-adf4-fdc13c4fcf43)"><path d="M69.1 44.6c8.9-8.9 14.2-18 10.5-23.5-3.3-5-12.1-4.3-22.2-.6-.1-.5-.2-1-.3-1.4-.3-.9-1.2-1.5-2.2-1.2-.9.3-1.5 1.2-1.2 2.2.2.6.3 1.2.4 1.8-3.1 1.3-6.3 2.9-9.5 4.7-3.1-1.7-6.3-3.3-9.4-4.6 2.4-9 6-14.1 9.4-14.1 2.1 0 3.9.6 5.1 2.3-.4.6-.6 1.2-.6 2 0 2 1.6 3.6 3.6 3.6s3.6-1.6 3.6-3.6c0-1.9-1.5-3.4-3.4-3.5-3-5-6.2-6.1-8.3-6.1-6 0-10.3 7.6-12.9 18.1-10.1-3.7-18.9-4.4-22.2.6-3.7 5.3 1.6 14.4 10.5 23.3l-.3.3c-.7.7-.7 1.8 0 2.5s1.8.7 2.5 0l.3-.3c2.1 1.9 4.4 3.8 6.7 5.7.3 4.3.8 8.6 1.6 12.5-6 2.2-11.2 3.2-14.7 2.5-1.5-.3-2.5-.9-3.1-1.7-1.4-2-.8-5.8 2.3-10.5.2 0 .4.1.6.1 2 0 3.6-1.6 3.6-3.6s-1.6-3.6-3.6-3.6-3.5 1.5-3.5 3.5c0 .4.1.8.2 1.2-4.4 6.3-5.5 11.5-3.1 14.9 1.1 1.7 2.9 2.7 5.4 3.2 4.2.8 10.1-.2 16.8-2.6 2.5 10.5 6.9 18.1 12.8 18.1 6 0 10.3-7.6 12.9-18.1.1.1.3.1.4.2.9.3 1.9-.2 2.3-1.1.3-.9-.2-1.9-1.1-2.3-.3-.1-.6-.2-.8-.3.8-3.9 1.3-8.2 1.6-12.5 2.4-1.9 4.7-3.8 6.8-5.7 5.6 5.5 9.2 10.7 10 14.8.3 1.5.1 3.1-.5 4-.8 1.2-2.2 2.1-4.5 2.3-.5-1.3-1.8-2.3-3.3-2.3-2 0-3.6 1.6-3.6 3.6s1.6 3.6 3.6 3.6c1.1 0 2-.5 2.7-1.2 5.1 0 7.5-1.8 8.7-3.5 1.1-1.7 1.4-3.7 1-6.2-1.1-5.1-5.3-11.2-11.6-17.5zm6.3-20.7c2.1 3.2-1 10.1-8.9 18.2-2.1-1.9-4.3-3.8-6.7-5.6-.3-4.4-.8-8.5-1.6-12.4 8.9-3.2 15.3-3.1 17.2-.2zm-20.5 1.4c.5 2.6.9 5.4 1.2 8.3-.9-.7-1.8-1.3-2.8-1.9-1.7-1.1-3.3-2.2-5.1-3.2 2.3-1.2 4.5-2.3 6.7-3.2zm1.6 19.3c0 2.2-.1 4.3-.2 6.3-1.6 1.2-3.3 2.4-5.1 3.7-2.2 1.5-4.5 2.9-6.7 4.2-2.2-1.3-4.5-2.7-6.7-4.2-1.8-1.2-3.5-2.4-5.1-3.7-.1-2-.2-4.1-.2-6.3s.1-4.3.2-6.3c1.7-1.3 3.4-2.5 5.1-3.7 2.3-1.5 4.5-2.9 6.7-4.2 2.2 1.3 4.4 2.6 6.7 4.2 1.8 1.2 3.5 2.4 5.1 3.6.2 2.2.2 4.3.2 6.4zM41 28.5c-1.7 1-3.4 2.1-5.1 3.2-.9.6-1.9 1.3-2.8 2 .3-3 .7-5.8 1.2-8.4 2.2.9 4.4 2 6.7 3.2zm-28-5.2c1.9-2.9 8.7-2.7 18 .7-.8 3.9-1.3 8.2-1.6 12.5-2.4 1.8-4.6 3.8-6.7 5.7-8.4-8.4-11.9-15.8-9.7-18.9zm12.2 21.3c1.3-1.1 2.6-2.3 3.9-3.4 0 1.1-.1 2.3-.1 3.4s0 2.3.1 3.4c-1.4-1.1-2.7-2.3-3.9-3.4zm7.9 10.9c.9.7 1.9 1.3 2.8 2 1.7 1.1 3.4 2.2 5.1 3.2-2.3 1.2-4.5 2.3-6.7 3.2-.5-2.6-.9-5.4-1.2-8.4zm11.5 26.8c-3.4 0-7.1-5.5-9.5-14.9 3.1-1.3 6.2-2.8 9.5-4.6 3.2 1.8 6.4 3.3 9.5 4.6-2.4 9.4-6.1 14.9-9.5 14.9zm10.2-18.4c-2.2-.9-4.4-2-6.7-3.2 1.7-1 3.4-2.1 5.1-3.2.9-.6 1.9-1.3 2.8-2-.3 3-.7 5.8-1.2 8.4zM60 48c0-1.1.1-2.3.1-3.4v-3.5c1.4 1.1 2.7 2.3 4 3.4-1.3 1.2-2.7 2.3-4.1 3.5z"></path></g><!----></svg>